STARTFONT 2.1
COMMENT Created by fdbbdf
FONT helvetica16b
SIZE 16 78 78
FONTBOUNDINGBOX 18 18 -1 -5
STARTPROPERTIES 4
Ownership "  Copyright (c) 1984 Adobe Systems, Inc.  /adobe/fonttools/stdfontvec.ps HM18.bits  TOTAL BITMAP BYTES 2307  TOTAL BITMAP BYTES 2335  GUIDELINES -4 0 10 14 DONE  WIDTHERR -140 -105  "
FONT_ASCENT 13
FONT_DESCENT 5
DEFAULT_CHAR 32
ENDPROPERTIES
CHARS 95
STARTCHAR sp
ENCODING -1 32
SWIDTH 0 0
DWIDTH 5 0
BBX 0 0 0 0
BITMAP
ENDCHAR
STARTCHAR !
ENCODING -1 33
SWIDTH 0 0
DWIDTH 5 0
BBX 3 14 1 -1
BITMAP
e000
e000
e000
e000
e000
e000
e000
e000
e000
e000
0000
0000
e000
e000
ENDCHAR
STARTCHAR "
ENCODING -1 34
SWIDTH 0 0
DWIDTH 7 0
BBX 5 5 1 8
BITMAP
d800
d800
d800
d800
9000
ENDCHAR
STARTCHAR #
ENCODING -1 35
SWIDTH 0 0
DWIDTH 11 0
BBX 11 13 0 -1
BITMAP
0d80
0d80
0d80
7fe0
7fe0
1b00
1b00
1b00
ffc0
ffc0
3600
3600
3600
ENDCHAR
STARTCHAR $
ENCODING -1 36
SWIDTH 0 0
DWIDTH 11 0
BBX 10 16 0 -3
BITMAP
0c00
3f00
7f80
edc0
ccc0
ec00
7c00
3f00
0f80
0dc0
ccc0
edc0
7f80
3f00
0c00
0c00
ENDCHAR
STARTCHAR %
ENCODING -1 37
SWIDTH 0 0
DWIDTH 16 0
BBX 13 13 1 -1
BITMAP
7820
fc60
ccc0
cc80
fd80
7b00
0200
06f0
0df8
0998
1998
31f8
20f0
ENDCHAR
STARTCHAR &
ENCODING -1 38
SWIDTH 0 0
DWIDTH 14 0
BBX 13 13 1 -1
BITMAP
3e00
7f00
6300
7700
3e00
7c00
ee30
c770
c3e0
c1c0
e3e0
7f70
3e38
ENDCHAR
STARTCHAR '
ENCODING -1 39
SWIDTH 0 0
DWIDTH 5 0
BBX 3 5 1 8
BITMAP
e000
e000
6000
6000
c000
ENDCHAR
STARTCHAR (
ENCODING -1 40
SWIDTH 0 0
DWIDTH 7 0
BBX 6 18 0 -5
BITMAP
1c00
3800
3000
7000
6000
e000
e000
e000
e000
e000
e000
e000
e000
6000
7000
3000
3800
1c00
ENDCHAR
STARTCHAR )
ENCODING -1 41
SWIDTH 0 0
DWIDTH 7 0
BBX 6 18 1 -5
BITMAP
e000
7000
3000
3800
1800
1c00
1c00
1c00
1c00
1c00
1c00
1c00
1c00
1800
3800
3000
7000
e000
ENDCHAR
STARTCHAR *
ENCODING -1 42
SWIDTH 0 0
DWIDTH 9 0
BBX 7 6 1 7
BITMAP
1000
d600
7c00
3800
6c00
4400
ENDCHAR
STARTCHAR +
ENCODING -1 43
SWIDTH 0 0
DWIDTH 12 0
BBX 10 10 1 0
BITMAP
0c00
0c00
0c00
0c00
ffc0
ffc0
0c00
0c00
0c00
0c00
ENDCHAR
STARTCHAR ,
ENCODING -1 44
SWIDTH 0 0
DWIDTH 5 0
BBX 3 5 1 -3
BITMAP
6000
6000
6000
6000
c000
ENDCHAR
STARTCHAR -
ENCODING -1 45
SWIDTH 0 0
DWIDTH 8 0
BBX 6 2 1 4
BITMAP
fc00
fc00
ENDCHAR
STARTCHAR .
ENCODING -1 46
SWIDTH 0 0
DWIDTH 4 0
BBX 2 3 1 -1
BITMAP
c000
c000
c000
ENDCHAR
STARTCHAR /
ENCODING -1 47
SWIDTH 0 0
DWIDTH 5 0
BBX 5 14 0 -1
BITMAP
1800
1800
1800
3800
3000
3000
3000
7000
6000
6000
e000
c000
c000
c000
ENDCHAR
STARTCHAR 0
ENCODING -1 48
SWIDTH 0 0
DWIDTH 10 0
BBX 9 13 0 -1
BITMAP
3e00
7f00
e380
e380
e380
e380
e380
e380
e380
e380
e380
7f00
3e00
ENDCHAR
STARTCHAR 1
ENCODING -1 49
SWIDTH 0 0
DWIDTH 10 0
BBX 6 13 1 -1
BITMAP
1c00
3c00
fc00
fc00
1c00
1c00
1c00
1c00
1c00
1c00
1c00
1c00
1c00
ENDCHAR
STARTCHAR 2
ENCODING -1 50
SWIDTH 0 0
DWIDTH 10 0
BBX 9 13 0 -1
BITMAP
3e00
7f00
e380
e380
0380
0780
0f00
1e00
3c00
7800
f000
ff80
ff80
ENDCHAR
STARTCHAR 3
ENCODING -1 51
SWIDTH 0 0
DWIDTH 10 0
BBX 9 13 0 -1
BITMAP
3e00
7f00
e380
e380
0380
1f00
1e00
0300
0380
e380
e380
7f00
3e00
ENDCHAR
STARTCHAR 4
ENCODING -1 52
SWIDTH 0 0
DWIDTH 10 0
BBX 9 13 0 -1
BITMAP
0300
0700
0f00
1f00
3f00
7700
e700
c700
ff80
ff80
0700
0700
0700
ENDCHAR
STARTCHAR 5
ENCODING -1 53
SWIDTH 0 0
DWIDTH 10 0
BBX 9 13 0 -1
BITMAP
ff00
ff00
e000
e000
fe00
ff00
e380
0380
0380
e380
e380
ff00
7e00
ENDCHAR
STARTCHAR 6
ENCODING -1 54
SWIDTH 0 0
DWIDTH 10 0
BBX 9 13 0 -1
BITMAP
3f00
7f00
f000
e000
e000
fe00
ff00
e380
e380
e380
e380
7f00
3e00
ENDCHAR
STARTCHAR 7
ENCODING -1 55
SWIDTH 0 0
DWIDTH 10 0
BBX 9 13 0 -1
BITMAP
ff80
ff80
0380
0700
0e00
0e00
1c00
1c00
3800
3800
7000
7000
7000
ENDCHAR
STARTCHAR 8
ENCODING -1 56
SWIDTH 0 0
DWIDTH 10 0
BBX 9 13 0 -1
BITMAP
3e00
7f00
e380
e380
e380
7f00
3e00
7f00
e380
e380
e380
7f00
3e00
ENDCHAR
STARTCHAR 9
ENCODING -1 57
SWIDTH 0 0
DWIDTH 10 0
BBX 9 13 0 -1
BITMAP
3e00
7f00
e380
e380
e380
e380
e380
7f80
3f80
0380
0380
7f00
7e00
ENDCHAR
STARTCHAR :
ENCODING -1 58
SWIDTH 0 0
DWIDTH 5 0
BBX 2 10 2 -1
BITMAP
c000
c000
c000
0000
0000
0000
0000
c000
c000
c000
ENDCHAR
STARTCHAR ;
ENCODING -1 59
SWIDTH 0 0
DWIDTH 5 0
BBX 3 12 1 -3
BITMAP
6000
6000
6000
0000
0000
0000
0000
6000
6000
6000
6000
c000
ENDCHAR
STARTCHAR <
ENCODING -1 60
SWIDTH 0 0
DWIDTH 11 0
BBX 9 9 1 1
BITMAP
0380
0f80
3e00
f800
e000
f800
3e00
0f80
0380
ENDCHAR
STARTCHAR =
ENCODING -1 61
SWIDTH 0 0
DWIDTH 11 0
BBX 9 6 1 2
BITMAP
7f80
7f80
0000
0000
7f80
7f80
ENDCHAR
STARTCHAR >
ENCODING -1 62
SWIDTH 0 0
DWIDTH 11 0
BBX 9 9 1 1
BITMAP
e000
f800
3e00
0f80
0380
0f80
3e00
f800
e000
ENDCHAR
STARTCHAR ?
ENCODING -1 63
SWIDTH 0 0
DWIDTH 10 0
BBX 8 14 1 -1
BITMAP
3c00
7e00
e700
e700
0700
0e00
1c00
3800
3800
3800
0000
0000
3800
3800
ENDCHAR
STARTCHAR @
ENCODING -1 64
SWIDTH 0 0
DWIDTH 18 0
BBX 16 17 1 -4
BITMAP
07f0
1ffc
380e
7006
63b3
c7f3
ce63
cc63
cc63
cc66
ccee
cffc
67b8
7000
3800
1ff0
07f0
ENDCHAR
STARTCHAR A
ENCODING -1 65
SWIDTH 0 0
DWIDTH 13 0
BBX 11 14 1 -1
BITMAP
0e00
0e00
1f00
1f00
1b00
3b80
3b80
3180
71c0
7fc0
7fc0
e0e0
e0e0
e0e0
ENDCHAR
STARTCHAR B
ENCODING -1 66
SWIDTH 0 0
DWIDTH 13 0
BBX 11 14 1 -1
BITMAP
ff00
ff80
e3c0
e1c0
e1c0
e380
ff80
ffc0
e1e0
e0e0
e0e0
e1e0
ffc0
ff80
ENDCHAR
STARTCHAR C
ENCODING -1 67
SWIDTH 0 0
DWIDTH 14 0
BBX 12 14 1 -1
BITMAP
0f80
3fe0
78e0
7070
f070
e000
e000
e000
e000
f070
7070
78e0
3fe0
0f80
ENDCHAR
STARTCHAR D
ENCODING -1 68
SWIDTH 0 0
DWIDTH 14 0
BBX 12 14 1 -1
BITMAP
ff00
ffc0
e1e0
e0e0
e070
e070
e070
e070
e070
e070
e0e0
e1e0
ffc0
ff00
ENDCHAR
STARTCHAR E
ENCODING -1 69
SWIDTH 0 0
DWIDTH 12 0
BBX 10 14 1 -1
BITMAP
ffc0
ffc0
e000
e000
e000
e000
ff80
ff80
e000
e000
e000
e000
ffc0
ffc0
ENDCHAR
STARTCHAR F
ENCODING -1 70
SWIDTH 0 0
DWIDTH 12 0
BBX 10 14 1 -1
BITMAP
ffc0
ffc0
e000
e000
e000
e000
ff80
ff80
e000
e000
e000
e000
e000
e000
ENDCHAR
STARTCHAR G
ENCODING -1 71
SWIDTH 0 0
DWIDTH 14 0
BBX 12 14 1 -1
BITMAP
0f80
3fe0
78e0
7070
e070
e000
e000
e3f0
e3f0
e070
7070
78f0
3ff0
1fb0
ENDCHAR
STARTCHAR H
ENCODING -1 72
SWIDTH 0 0
DWIDTH 13 0
BBX 11 14 1 -1
BITMAP
e0e0
e0e0
e0e0
e0e0
e0e0
e0e0
ffe0
ffe0
e0e0
e0e0
e0e0
e0e0
e0e0
e0e0
ENDCHAR
STARTCHAR I
ENCODING -1 73
SWIDTH 0 0
DWIDTH 5 0
BBX 3 14 1 -1
BITMAP
e000
e000
e000
e000
e000
e000
e000
e000
e000
e000
e000
e000
e000
e000
ENDCHAR
STARTCHAR J
ENCODING -1 74
SWIDTH 0 0
DWIDTH 10 0
BBX 9 14 0 -1
BITMAP
0380
0380
0380
0380
0380
0380
0380
0380
0380
e380
e380
7700
7f00
1c00
ENDCHAR
STARTCHAR K
ENCODING -1 75
SWIDTH 0 0
DWIDTH 14 0
BBX 13 14 1 -1
BITMAP
e0f0
e1e0
e3c0
e780
ef00
fe00
fc00
fe00
ef00
e780
e3c0
e1e0
e0f0
e078
ENDCHAR
STARTCHAR L
ENCODING -1 76
SWIDTH 0 0
DWIDTH 11 0
BBX 9 14 1 -1
BITMAP
e000
e000
e000
e000
e000
e000
e000
e000
e000
e000
e000
e000
ff80
ff80
ENDCHAR
STARTCHAR M
ENCODING -1 77
SWIDTH 0 0
DWIDTH 16 0
BBX 14 14 1 -1
BITMAP
e01c
e01c
f03c
f03c
f87c
f87c
f87c
fcfc
ecdc
efdc
e79c
e79c
e31c
e31c
ENDCHAR
STARTCHAR N
ENCODING -1 78
SWIDTH 0 0
DWIDTH 14 0
BBX 12 14 1 -1
BITMAP
e070
f070
f870
fc70
fe70
fe70
ef70
e7f0
e7f0
e3f0
e1f0
e0f0
e070
e030
ENDCHAR
STARTCHAR O
ENCODING -1 79
SWIDTH 0 0
DWIDTH 16 0
BBX 14 14 1 -1
BITMAP
0fc0
3ff0
7878
7038
f03c
e01c
e01c
e01c
e01c
f03c
7038
7878
3ff0
0fc0
ENDCHAR
STARTCHAR P
ENCODING -1 80
SWIDTH 0 0
DWIDTH 12 0
BBX 10 14 1 -1
BITMAP
fe00
ff80
e3c0
e1c0
e1c0
e3c0
ff80
fe00
e000
e000
e000
e000
e000
e000
ENDCHAR
STARTCHAR Q
ENCODING -1 81
SWIDTH 0 0
DWIDTH 16 0
BBX 14 15 1 -2
BITMAP
0fc0
3ff0
7878
7038
e01c
e01c
e01c
e01c
e01c
e19c
71dc
78f8
3ff0
0ff8
001c
ENDCHAR
STARTCHAR R
ENCODING -1 82
SWIDTH 0 0
DWIDTH 13 0
BBX 11 14 1 -1
BITMAP
ff00
ffc0
e1e0
e0e0
e0e0
e1e0
ffc0
ff80
e1c0
e0e0
e0e0
e0e0
e0e0
e0e0
ENDCHAR
STARTCHAR S
ENCODING -1 83
SWIDTH 0 0
DWIDTH 12 0
BBX 10 14 1 -1
BITMAP
3f00
7f80
f3c0
e1c0
f000
7c00
3f00
0f80
03c0
e1c0
e1c0
f3c0
7f80
3f00
ENDCHAR
STARTCHAR T
ENCODING -1 84
SWIDTH 0 0
DWIDTH 11 0
BBX 11 14 0 -1
BITMAP
ffe0
ffe0
0e00
0e00
0e00
0e00
0e00
0e00
0e00
0e00
0e00
0e00
0e00
0e00
ENDCHAR
STARTCHAR U
ENCODING -1 85
SWIDTH 0 0
DWIDTH 13 0
BBX 11 14 1 -1
BITMAP
e0e0
e0e0
e0e0
e0e0
e0e0
e0e0
e0e0
e0e0
e0e0
e0e0
e0e0
71c0
7fc0
1f00
ENDCHAR
STARTCHAR V
ENCODING -1 86
SWIDTH 0 0
DWIDTH 13 0
BBX 11 14 1 -1
BITMAP
e0e0
e0e0
e0e0
71c0
71c0
71c0
3180
3b80
3b80
1b00
1f00
0e00
0e00
0e00
ENDCHAR
STARTCHAR W
ENCODING -1 87
SWIDTH 0 0
DWIDTH 17 0
BBX 15 14 1 -1
BITMAP
e38e
e38e
e38e
e38e
e38e
739c
739c
77dc
37d8
36d8
3ef8
1c70
1c70
1c70
ENDCHAR
STARTCHAR X
ENCODING -1 88
SWIDTH 0 0
DWIDTH 12 0
BBX 12 14 0 -1
BITMAP
e070
f0f0
70e0
39c0
3fc0
1f80
0f00
0f00
1f80
3fc0
39c0
70e0
f0f0
e070
ENDCHAR
STARTCHAR Y
ENCODING -1 89
SWIDTH 0 0
DWIDTH 13 0
BBX 11 14 1 -1
BITMAP
e0e0
e0e0
e0e0
71c0
71c0
3b80
3b80
1f00
1f00
0e00
0e00
0e00
0e00
0e00
ENDCHAR
STARTCHAR Z
ENCODING -1 90
SWIDTH 0 0
DWIDTH 11 0
BBX 10 14 0 -1
BITMAP
ffc0
ffc0
01c0
03c0
0780
0f00
1e00
1c00
3c00
7800
f000
e000
ffc0
ffc0
ENDCHAR
STARTCHAR [
ENCODING -1 91
SWIDTH 0 0
DWIDTH 6 0
BBX 5 18 1 -5
BITMAP
f800
f800
e000
e000
e000
e000
e000
e000
e000
e000
e000
e000
e000
e000
e000
e000
f800
f800
ENDCHAR
STARTCHAR \
ENCODING -1 92
SWIDTH 0 0
DWIDTH 5 0
BBX 5 14 0 -1
BITMAP
c000
c000
c000
e000
6000
6000
6000
7000
3000
3000
3800
1800
1800
1800
ENDCHAR
STARTCHAR ]
ENCODING -1 93
SWIDTH 0 0
DWIDTH 6 0
BBX 5 18 0 -5
BITMAP
f800
f800
3800
3800
3800
3800
3800
3800
3800
3800
3800
3800
3800
3800
3800
3800
f800
f800
ENDCHAR
STARTCHAR ^
ENCODING -1 94
SWIDTH 0 0
DWIDTH 10 0
BBX 10 5 0 7
BITMAP
0c00
1e00
3f00
7380
e1c0
ENDCHAR
STARTCHAR _
ENCODING -1 95
SWIDTH 0 0
DWIDTH 10 0
BBX 10 2 0 -5
BITMAP
ffc0
ffc0
ENDCHAR
STARTCHAR `
ENCODING -1 96
SWIDTH 0 0
DWIDTH 5 0
BBX 3 5 1 8
BITMAP
6000
c000
c000
e000
e000
ENDCHAR
STARTCHAR a
ENCODING -1 97
SWIDTH 0 0
DWIDTH 10 0
BBX 8 10 1 -1
BITMAP
3e00
7f00
6700
0700
7f00
f700
e700
e700
ff00
7700
ENDCHAR
STARTCHAR b
ENCODING -1 98
SWIDTH 0 0
DWIDTH 12 0
BBX 10 14 1 -1
BITMAP
e000
e000
e000
e000
ef00
ff80
f3c0
e1c0
e1c0
e1c0
e1c0
f3c0
ff80
ef00
ENDCHAR
STARTCHAR c
ENCODING -1 99
SWIDTH 0 0
DWIDTH 10 0
BBX 9 10 1 -1
BITMAP
3f00
7f80
f380
e000
e000
e000
e000
f380
7f80
3f00
ENDCHAR
STARTCHAR d
ENCODING -1 100
SWIDTH 0 0
DWIDTH 12 0
BBX 10 14 1 -1
BITMAP
01c0
01c0
01c0
01c0
3dc0
7fc0
f3c0
e1c0
e1c0
e1c0
e1c0
f3c0
7fc0
3dc0
ENDCHAR
STARTCHAR e
ENCODING -1 101
SWIDTH 0 0
DWIDTH 11 0
BBX 9 10 1 -1
BITMAP
3e00
7f00
f380
e180
ff80
ff80
e000
e000
7f00
3f00
ENDCHAR
STARTCHAR f
ENCODING -1 102
SWIDTH 0 0
DWIDTH 7 0
BBX 7 14 0 -1
BITMAP
1e00
3e00
3800
3800
fe00
fe00
3800
3800
3800
3800
3800
3800
3800
3800
ENDCHAR
STARTCHAR g
ENCODING -1 103
SWIDTH 0 0
DWIDTH 12 0
BBX 10 14 1 -5
BITMAP
3dc0
7fc0
f3c0
e1c0
e1c0
e1c0
e1c0
f3c0
7fc0
3dc0
01c0
71c0
7f80
3f00
ENDCHAR
STARTCHAR h
ENCODING -1 104
SWIDTH 0 0
DWIDTH 11 0
BBX 9 14 1 -1
BITMAP
e000
e000
e000
e000
ef00
ff80
f380
e380
e380
e380
e380
e380
e380
e380
ENDCHAR
STARTCHAR i
ENCODING -1 105
SWIDTH 0 0
DWIDTH 5 0
BBX 3 14 1 -1
BITMAP
e000
e000
0000
0000
e000
e000
e000
e000
e000
e000
e000
e000
e000
e000
ENDCHAR
STARTCHAR j
ENCODING -1 106
SWIDTH 0 0
DWIDTH 5 0
BBX 5 18 -1 -5
BITMAP
3800
3800
0000
0000
3800
3800
3800
3800
3800
3800
3800
3800
3800
3800
3800
3800
f800
f000
ENDCHAR
STARTCHAR k
ENCODING -1 107
SWIDTH 0 0
DWIDTH 10 0
BBX 9 14 1 -1
BITMAP
e000
e000
e000
e000
e700
ee00
fc00
f800
f800
fc00
ee00
e700
e380
e180
ENDCHAR
STARTCHAR l
ENCODING -1 108
SWIDTH 0 0
DWIDTH 5 0
BBX 3 14 1 -1
BITMAP
e000
e000
e000
e000
e000
e000
e000
e000
e000
e000
e000
e000
e000
e000
ENDCHAR
STARTCHAR m
ENCODING -1 109
SWIDTH 0 0
DWIDTH 15 0
BBX 13 10 1 -1
BITMAP
eef0
fff8
f7b8
e738
e738
e738
e738
e738
e738
e738
ENDCHAR
STARTCHAR n
ENCODING -1 110
SWIDTH 0 0
DWIDTH 11 0
BBX 9 10 1 -1
BITMAP
ef00
ff80
f380
e380
e380
e380
e380
e380
e380
e380
ENDCHAR
STARTCHAR o
ENCODING -1 111
SWIDTH 0 0
DWIDTH 12 0
BBX 10 10 1 -1
BITMAP
3f00
7f80
f3c0
e1c0
e1c0
e1c0
e1c0
f3c0
7f80
3f00
ENDCHAR
STARTCHAR p
ENCODING -1 112
SWIDTH 0 0
DWIDTH 12 0
BBX 10 14 1 -5
BITMAP
ef00
ff80
f3c0
e1c0
e1c0
e1c0
e1c0
f3c0
ff80
ef00
e000
e000
e000
e000
ENDCHAR
STARTCHAR q
ENCODING -1 113
SWIDTH 0 0
DWIDTH 12 0
BBX 10 14 1 -5
BITMAP
3dc0
7fc0
f3c0
e1c0
e1c0
e1c0
e1c0
f3c0
7fc0
3dc0
01c0
01c0
01c0
01c0
ENDCHAR
STARTCHAR r
ENCODING -1 114
SWIDTH 0 0
DWIDTH 8 0
BBX 6 10 1 -1
BITMAP
ec00
fc00
fc00
f000
e000
e000
e000
e000
e000
e000
ENDCHAR
STARTCHAR s
ENCODING -1 115
SWIDTH 0 0
DWIDTH 10 0
BBX 8 10 1 -1
BITMAP
3e00
7f00
e700
f000
7c00
3e00
0f00
e700
fe00
7c00
ENDCHAR
STARTCHAR t
ENCODING -1 116
SWIDTH 0 0
DWIDTH 6 0
BBX 6 13 0 -1
BITMAP
7000
7000
7000
fc00
fc00
7000
7000
7000
7000
7000
7000
7c00
3c00
ENDCHAR
STARTCHAR u
ENCODING -1 117
SWIDTH 0 0
DWIDTH 11 0
BBX 9 10 1 -1
BITMAP
e380
e380
e380
e380
e380
e380
e380
e780
ff80
7b80
ENDCHAR
STARTCHAR v
ENCODING -1 118
SWIDTH 0 0
DWIDTH 10 0
BBX 9 10 0 -1
BITMAP
e380
e380
e380
e380
7700
7700
3600
3e00
1c00
1c00
ENDCHAR
STARTCHAR w
ENCODING -1 119
SWIDTH 0 0
DWIDTH 14 0
BBX 13 10 0 -1
BITMAP
e738
e738
e738
e738
e738
efb8
6db0
7df0
38e0
38e0
ENDCHAR
STARTCHAR x
ENCODING -1 120
SWIDTH 0 0
DWIDTH 10 0
BBX 9 10 0 -1
BITMAP
e380
e380
7700
7f00
3e00
3e00
7f00
7700
e380
e380
ENDCHAR
STARTCHAR y
ENCODING -1 121
SWIDTH 0 0
DWIDTH 9 0
BBX 9 14 0 -5
BITMAP
e380
e380
e380
7700
7700
7700
3e00
3e00
1c00
1c00
1c00
1800
7800
7000
ENDCHAR
STARTCHAR z
ENCODING -1 122
SWIDTH 0 0
DWIDTH 10 0
BBX 8 10 1 -1
BITMAP
ff00
ff00
0700
0e00
1c00
3800
7000
e000
ff00
ff00
ENDCHAR
STARTCHAR {
ENCODING -1 123
SWIDTH 0 0
DWIDTH 8 0
BBX 7 18 1 -5
BITMAP
0e00
1c00
3800
3800
3800
3800
3800
7000
e000
7000
3800
3800
3800
3800
3800
3800
1c00
0e00
ENDCHAR
STARTCHAR |
ENCODING -1 124
SWIDTH 0 0
DWIDTH 5 0
BBX 3 18 1 -5
BITMAP
e000
e000
e000
e000
e000
e000
e000
e000
e000
e000
e000
e000
e000
e000
e000
e000
e000
e000
ENDCHAR
STARTCHAR }
ENCODING -1 125
SWIDTH 0 0
DWIDTH 8 0
BBX 7 18 0 -5
BITMAP
e000
7000
3800
3800
3800
3800
3800
1c00
0e00
1c00
3800
3800
3800
3800
3800
3800
7000
e000
ENDCHAR
STARTCHAR ~
ENCODING -1 126
SWIDTH 0 0
DWIDTH 11 0
BBX 9 3 1 3
BITMAP
7980
ff80
cf00
ENDCHAR
ENDFONT
